<svg xmlns="http://www.w3.org/2000/svg" viewBox="0 0 64 64" role="img" aria-label="biblioHack">
  <rect width="64" height="64" rx="13" fill="#2b2620"/>
  <!-- open book -->
  <g fill="none" stroke="#faf7f2" stroke-width="3" stroke-linejoin="round" stroke-linecap="round">
    <path d="M32 19c-4.2-3-9.5-3.6-15-2.4v26c5.5-1.2 10.8-.6 15 2.4 4.2-3 9.5-3.6 15-2.4v-26C41.5 15.4 36.2 16 32 19Z" fill="#8b5e34"/>
    <path d="M32 19v28"/>
    <path d="M22.5 25.5c2.6-.5 5-.4 6.8.4M22.5 31.5c2.6-.5 5-.4 6.8.4M41.5 25.5c-2.6-.5-5-.4-6.8.4M41.5 31.5c-2.6-.5-5-.4-6.8.4" stroke-width="2"/>
  </g>
</svg>
